<svg xmlns="http://www.w3.org/2000/svg" viewBox="0 0 1200 260" font-family="-apple-system,BlinkMacSystemFont,'Segoe UI',Helvetica,Arial,sans-serif">
  <defs>
    <linearGradient id="mark" x1="0" y1="0" x2="1" y2="1">
      <stop offset="0" stop-color="#d1541f"/>
      <stop offset="1" stop-color="#b8355f"/>
    </linearGradient>
    <linearGradient id="tagline" x1="0" y1="0" x2="1" y2="0">
      <stop offset="0" stop-color="#d1541f"/>
      <stop offset="1" stop-color="#b8355f"/>
    </linearGradient>
  </defs>

  <rect x="1" y="1" width="1198" height="258" rx="20" fill="#f8f5f2" stroke="#eddcc4" stroke-width="2"/>

  <!-- djobi mark -->
  <g transform="translate(90,74)">
    <rect x="0" y="0" width="112" height="112" rx="26" fill="url(#mark)"/>
    <rect x="23.33" y="38.89" width="65.33" height="34.22" rx="7.78" fill="none" stroke="#ffffff" stroke-width="4.67"/>
    <line x1="23.33" y1="56" x2="88.67" y2="56" stroke="#ffffff" stroke-width="4.67"/>
    <path d="M93.33 63.78 C94.11 59.11 96.44 56.78 101.11 55.99 C96.44 55.22 94.11 52.89 93.33 48.22 C92.56 52.89 90.22 55.22 85.56 55.99 C90.22 56.78 92.56 59.11 93.33 63.78 Z" fill="#ffffff"/>
  </g>

  <text x="228" y="140" fill="#2b1f16" font-size="64" font-weight="700" letter-spacing="-1">djobi</text>
  <text x="228" y="172" fill="#7d6a58" font-size="20" letter-spacing="0.5">Chrome extension &amp; tracking dashboard</text>

  <text x="1108" y="118" fill="#2b1f16" font-size="30" font-weight="600" text-anchor="end">Every application tailored.</text>
  <text x="1108" y="156" fill="url(#tagline)" font-size="30" font-weight="700" text-anchor="end">Every outcome tracked.</text>
</svg>
